<svg id="Layer_1" data-name="Layer 1" xmlns="http://www.w3.org/2000/svg" viewBox="0 0 141.73 141.73"><defs><style>.cls-1{fill:#adc965;}.cls-2{fill:#fff;}</style></defs><g id="Group_3496" data-name="Group 3496"><g id="Group_3493" data-name="Group 3493"><path id="Path_871" data-name="Path 871" class="cls-1" d="M65.08,59.54h11a6,6,0,0,1,6,6v11a6,6,0,0,1-6,6h-11a6,6,0,0,1-6-6v-11A6,6,0,0,1,65.08,59.54Z"/></g><path id="fi-rr-world" class="cls-2" d="M70.69,64.43A6.61,6.61,0,1,0,77.29,71h0A6.6,6.6,0,0,0,70.69,64.43ZM76.19,71a5.37,5.37,0,0,1-.91,3l-.65-.66a.27.27,0,0,1-.08-.19v-.53A1.65,1.65,0,0,0,72.89,71H71.24a.55.55,0,0,1-.55-.55h0v-.28a.27.27,0,0,1,.27-.27h0a1.38,1.38,0,0,0,1.38-1.38h0V68a.28.28,0,0,1,.27-.28h.76a1.38,1.38,0,0,0,1-.4l.21-.2A5.47,5.47,0,0,1,76.19,71Zm-11,.53L67,73.31a1.65,1.65,0,0,0,1.17.48h1.47a.55.55,0,0,1,.55.55v2.18A5.53,5.53,0,0,1,65.21,71.57Zm6,5V74.34a1.65,1.65,0,0,0-1.65-1.65H68.12a.55.55,0,0,1-.39-.16l-2.46-2.45a5.5,5.5,0,0,1,6.37-4.46,5.61,5.61,0,0,1,2,.81l-.12.13a.27.27,0,0,1-.19.08h-.76A1.37,1.37,0,0,0,71.24,68v.55a.28.28,0,0,1-.28.28h0a1.37,1.37,0,0,0-1.37,1.37h0v.28a1.65,1.65,0,0,0,1.65,1.65h1.65a.55.55,0,0,1,.55.55v.53a1.38,1.38,0,0,0,.4,1l.74.74a5.53,5.53,0,0,1-3.34,1.59Z"/></g></svg>