<svg id="Layer_1" data-name="Layer 1" xmlns="http://www.w3.org/2000/svg" viewBox="0 0 141.73 141.73"><defs><style>.cls-1{fill:#ff8357;}.cls-2{fill:#fff;}</style></defs><g id="Group_3493" data-name="Group 3493"><path id="Path_871" data-name="Path 871" class="cls-1" d="M65.37,59.37h11a6,6,0,0,1,6,6v11a6,6,0,0,1-6,6h-11a6,6,0,0,1-6-6v-11A6,6,0,0,1,65.37,59.37Z"/><path id="fi-rr-trophy" class="cls-2" d="M72.48,73.5c3.43,0,4.65-1.84,4.65-3.4a1.83,1.83,0,0,0-1.45-1.78,5.58,5.58,0,0,0,.18-.53,2,2,0,0,0-.33-1.8,2.07,2.07,0,0,0-1.67-.84h-6A2.09,2.09,0,0,0,66.2,66a2,2,0,0,0-.33,1.8,5.58,5.58,0,0,0,.18.53,1.8,1.8,0,0,0-1.44,1.78c0,1.56,1.22,3.38,4.64,3.4a2.44,2.44,0,0,1,0,.48v1.6a1,1,0,0,1-.92,1h-.64a.52.52,0,0,0-.55.49.53.53,0,0,0,.5.55H74a.52.52,0,0,0,.49-.55.5.5,0,0,0-.49-.49h-.52a1,1,0,0,1-1-.92V74a2.44,2.44,0,0,1,0-.48Zm2.83-4.18a.78.78,0,0,1,.78.79h0c0,1.06-.84,2.19-3.15,2.33a2.72,2.72,0,0,1,.4-.43,8,8,0,0,0,1.94-2.69Zm-9.66.79a.79.79,0,0,1,.79-.79h0A8,8,0,0,0,68.4,72a2.35,2.35,0,0,1,.4.43c-2.31-.14-3.15-1.27-3.15-2.34Zm4.44,6.52a2.12,2.12,0,0,0,.26-1V74a3.63,3.63,0,0,0-1.27-2.77,7.93,7.93,0,0,1-2.2-3.71,1,1,0,0,1,.16-.89,1,1,0,0,1,.84-.42h6a1.07,1.07,0,0,1,.84.42,1,1,0,0,1,.16.89,8,8,0,0,1-2.2,3.71A3.59,3.59,0,0,0,71.39,74v1.6a2.14,2.14,0,0,0,.25,1Z"/></g></svg>