<svg id="Layer_1" data-name="Layer 1" xmlns="http://www.w3.org/2000/svg" viewBox="0 0 141.73 141.73"><defs><style>.cls-1{fill:#bb9dcf;}.cls-2{fill:#fff;}</style></defs><g id="Group_3497" data-name="Group 3497"><g id="Group_3488" data-name="Group 3488"><rect id="Rectangle_65" data-name="Rectangle 65" class="cls-1" x="59.37" y="59.37" width="23" height="23" rx="6"/><path id="Path_4" data-name="Path 4" class="cls-2" d="M74.22,67h-.53a2.42,2.42,0,0,0-2.35-1.92h-1A2.42,2.42,0,0,0,68,67h-.52a2.4,2.4,0,0,0-2.4,2.39v4.79a2.42,2.42,0,0,0,2.4,2.39h6.7a2.41,2.41,0,0,0,2.39-2.39V69.43A2.4,2.4,0,0,0,74.22,67Zm-3.83-1h1a1.43,1.43,0,0,1,1.35,1H69A1.43,1.43,0,0,1,70.39,66.08ZM67.52,68h6.7a1.43,1.43,0,0,1,1.43,1.43h0v1.44H66.08V69.43A1.43,1.43,0,0,1,67.52,68Zm6.7,7.65h-6.7a1.43,1.43,0,0,1-1.44-1.43h0v-2.4h4.31v.48a.48.48,0,1,0,1,0v-.48h4.31v2.4a1.43,1.43,0,0,1-1.43,1.43Z"/></g></g></svg>