<svg id="Layer_1" data-name="Layer 1" xmlns="http://www.w3.org/2000/svg" viewBox="0 0 141.73 141.73"><defs><style>.cls-1{fill:#89d5c9;}.cls-2{fill:#fff;}</style></defs><rect id="Rectangle_65" data-name="Rectangle 65" class="cls-1" x="59.37" y="59.37" width="23" height="23" rx="6"/><path id="Path_87" data-name="Path 87" class="cls-2" d="M77,72.21H75.84V70H77a.47.47,0,0,0,.38-.16.56.56,0,0,0,0-.78.47.47,0,0,0-.38-.16H75.84v-3a.49.49,0,0,0-.16-.4.54.54,0,0,0-.39-.16.54.54,0,0,0-.56.51v3H70.49l-2.55-3.35a.56.56,0,0,0-.78-.09.55.55,0,0,0-.2.45v3h-.89a.47.47,0,0,0-.38.16.56.56,0,0,0,0,.78.52.52,0,0,0,.38.17H67v2.23h-.89a.5.5,0,0,0-.38.15.57.57,0,0,0,0,.79.52.52,0,0,0,.38.17H67v2.55a.52.52,0,0,0,.51.55h0a.51.51,0,0,0,.39-.15.51.51,0,0,0,.16-.4V73.31h4.59l2.22,2.92a.45.45,0,0,0,.19.14.59.59,0,0,0,.23,0,.58.58,0,0,0,.39-.15.51.51,0,0,0,.16-.4V73.31H77a.54.54,0,0,0,.54-.53h0a.51.51,0,0,0-.15-.39A.49.49,0,0,0,77,72.21ZM74.73,70v2.24H73L71.33,70Zm-6.67-2.66,1.19,1.56H68.06Zm0,2.66h2l1.7,2.24H68.06Zm6.67,4.47-.86-1.13h.86Z"/></svg>