<svg id="Layer_1" data-name="Layer 1" xmlns="http://www.w3.org/2000/svg" viewBox="0 0 141.73 141.73"><defs><style>.cls-1{fill:#fac172;}.cls-2{fill:#fff;}</style></defs><g id="Group_3498" data-name="Group 3498"><rect id="Rectangle_65" data-name="Rectangle 65" class="cls-1" x="59.37" y="59.37" width="23" height="23" rx="6"/><path id="fi-rr-bulb" class="cls-2" d="M74.08,65.65a4.83,4.83,0,1,0-6.5,7.14,3.38,3.38,0,0,1,1.14,2.45v.09a2,2,0,0,0,2,2H71a2,2,0,0,0,2-2V75a2.85,2.85,0,0,1,1-2.14,4.82,4.82,0,0,0,.45-6.81,5.66,5.66,0,0,0-.42-.43ZM71,76.23H70.7a.91.91,0,0,1-.91-.91v-.16h2.15v.17a.91.91,0,0,1-.91.91Zm2.31-4.15a4.15,4.15,0,0,0-1.27,2H71.4V70.23a1.63,1.63,0,0,0,1.08-1.51.54.54,0,0,0-.56-.51.53.53,0,0,0-.51.51.54.54,0,0,1-1.08,0v0a.54.54,0,0,0-1.07,0,1.61,1.61,0,0,0,1.07,1.51v3.86h-.71A4.65,4.65,0,0,0,68.31,72a3.76,3.76,0,0,1,2.12-6.47,3.25,3.25,0,0,1,.44,0,3.7,3.7,0,0,1,2.5,1,3.75,3.75,0,0,1,.3,5.3A3.34,3.34,0,0,1,73.34,72.08Z"/></g></svg>