<svg id="Layer_1" data-name="Layer 1" xmlns="http://www.w3.org/2000/svg" viewBox="0 0 141.73 141.73"><defs><style>.cls-1{fill:#727afa;}.cls-2{fill:#fff;}</style></defs><rect id="Rectangle_65" data-name="Rectangle 65" class="cls-1" x="59.37" y="57.32" width="23" height="23" rx="6"/><path id="fi-rr-diamond" class="cls-2" d="M76.68,65.58l-1.56-2.11a2.09,2.09,0,0,0-1.68-.87H68.3a2.07,2.07,0,0,0-1.68.86L65,65.58a2.09,2.09,0,0,0,.06,2.48l4.56,6.39a1.55,1.55,0,0,0,1.22.59h0a1.56,1.56,0,0,0,1.23-.61l4.52-6.32A2.07,2.07,0,0,0,76.68,65.58Zm-2.4-1.5,1.57,2.11s0,0,0,0H73.33l-.74-2.59h.85a1,1,0,0,1,.84.44Zm-3.41,8.43-1.4-5.24h2.8Zm-1.39-6.28.74-2.59h1.29l.74,2.59Zm-2-2.16a1,1,0,0,1,.84-.43h.84l-.74,2.59H65.85l0,0Zm-1.54,3.37-.1-.17H68.4L70,73.09Zm5.87,5.65,1.55-5.82h2.58a.88.88,0,0,1-.12.21Z"/></svg>